<?xml version="1.0" standalone="no"?>
<!DOCTYPE svg PUBLIC "-//W3C//DTD SVG 20010904//EN"
 "http://www.w3.org/TR/2001/REC-SVG-20010904/DTD/svg10.dtd">
<svg version="1.0" xmlns="http://www.w3.org/2000/svg"
 width="260.000000pt" height="260.000000pt" viewBox="0 0 260.000000 260.000000"
 preserveAspectRatio="xMidYMid meet">
<metadata>
Created by potrace 1.14, written by Peter Selinger 2001-2017
</metadata>
<g transform="translate(0.000000,260.000000) scale(0.100000,-0.100000)"
fill="#000000" stroke="none">
<path d="M0 1300 l0 -1300 1300 0 1300 0 0 1300 0 1300 -1300 0 -1300 0 0
-1300z m1085 948 c3 -7 -6 -65 -19 -128 -14 -63 -34 -162 -45 -220 -12 -58
-31 -144 -43 -193 -11 -48 -19 -90 -16 -92 3 -3 114 77 247 177 134 101 255
192 270 203 16 11 101 75 191 143 l162 122 234 0 c128 0 235 -4 238 -8 3 -5
-68 -67 -157 -138 -89 -71 -202 -163 -252 -204 -72 -61 -368 -301 -529 -430
-17 -13 -41 -34 -54 -46 l-23 -20 261 -522 c144 -287 258 -526 255 -532 -4 -6
-90 -10 -228 -10 l-222 0 -45 97 c-24 54 -61 136 -83 183 -21 47 -50 110 -64
140 -39 84 -77 166 -122 262 -23 48 -41 91 -41 95 0 5 -6 18 -14 28 -13 18
-16 18 -68 -19 -60 -41 -63 -47 -92 -186 -36 -176 -59 -291 -77 -385 -24 -130
-38 -187 -51 -202 -8 -10 -61 -13 -209 -13 -167 0 -199 2 -199 14 0 8 15 86
34 173 18 87 39 190 46 228 7 39 16 80 21 91 4 12 15 66 24 120 9 55 27 144
40 199 12 55 26 120 29 145 3 25 17 95 31 155 14 61 34 155 45 210 54 279 108
540 115 563 3 9 53 12 205 12 151 0 202 -3 205 -12z"/>
</g>
</svg>
